# xmcd
#
# Track frame offsets: 
#        150
#        17396
#        31664
#        49153
#        63958
#        77259
#        91610
#        121187
#        135643
#        157149
#        170671
#        186264
#        203131
#        214983
#        227380
#        239573
#        256823
#        275509
#        306635
#
# Disc length: 4285 seconds
#
# Revision: 0
# Processed by: cddbd v1.5PL3 Copyright (c) Steve Scherf et al.
# Submitted via: ExactAudioCopy v0.95a5
#
DISCID=fb10bb13
DTITLE=Various Artist - Forever Country Songs Of American
DYEAR=1900
DGENRE=Country
TTITLE0=Kenny Rogers - I Swear
TTITLE1=John Denver - Take Me Home, Country Roads
TTITLE2=Albert Hammond - It Never Rains In Southern California
TTITLE3=Dolly Parton - I Will Always Love You
TTITLE4=Scott Mckenzie - San Francisco
TTITLE5=Simon and Garfunkel - Scarborough Fair
TTITLE6=Dan Fogelberg - Sutter's Mill
TTITLE7=Dan Fogelberg - Longer
TTITLE8=Roberta Flack - Killing Me Softly With His Song
TTITLE9=Marilyn Monroe - When I Fall In Love
TTITLE10=Kenny Rogers - Unchained Melody
TTITLE11=Kenny Rogers - When A Man Loves A Woman
TTITLE12=The Shirelles - Will You Love Me Tomorrow
TTITLE13=Elvis Presley - Love Me Tender
TTITLE14=Brian Hyland - Sealed With A Kiss
TTITLE15=Kenny Rogers - Endless Love
TTITLE16=Kenny Rogers and Dolly Parton - Islands In The Stream
TTITLE17=Eagles - Hotel California
TTITLE18=Music From The Mountains
EXTD=
EXTT0=
EXTT1=
EXTT2=
EXTT3=
EXTT4=
EXTT5=
EXTT6=
EXTT7=
EXTT8=
EXTT9=
EXTT10=
EXTT11=
EXTT12=
EXTT13=
EXTT14=
EXTT15=
EXTT16=
EXTT17=
EXTT18=
PLAYORDER=
